PathFileType	4	(X/Y/Z)	C:/Users/beibeiliu/ov580/test_trc\sequence.14_training_dense_right.trc
DataRate	CameraRate	NumFrames	NumMarkers	Units	OrigDataRate	OrigDataStartFrame	OrigNumFrames
120	120	22	19	mm	120	48	383
Frame#	Time	ThumbCMC			ThumbMCP			ThumbIP			ThumbTip			IndexMCP			IndexPIP			IndexTip			MiddleMCP			MiddlePIP			MiddleTip			RingMCP			RingPIP			RingTip			PinkyMCP			PinkyPIP			PinkyTip			BackHand1			BackHand2			BackHand3	
		X0	Y0	Z0	X1	Y1	Z1	X2	Y2	Z2	X3	Y3	Z3	X4	Y4	Z4	X5	Y5	Z5	X6	Y6	Z6	X7	Y7	Z7	X8	Y8	Z8	X9	Y9	Z9	X10	Y10	Z10	X11	Y11	Z11	X12	Y12	Z12	X13	Y13	Z13	X14	Y14	Z14	X15	Y15	Z15	X16	Y16	Z16	X17	Y17	Z17	X18	Y18	Z18	
47	0.391667	217.525	13.8488	16.1427	202.498	21.7841	-16.0385	200.913	21.6309	-40.1733	202.74	18.8266	-58.6863	236.417	32.3347	-39.2738	211.043	25.9167	-55.5738	187.414	22.1031	-40.2482	241.535	12.2766	-53.3793	218.734	17.1559	-72.5027	189.544	15.155	-74.832	240.632	-4.81939	-50.3774	212.488	-2.46452	-64.2675	192.454	-1.13221	-50.7419	238.153	-23.8399	-48.0896	217.682	-14.0738	-54.9495	202.166	-8.0615	-37.2929	255.45	-19.3683	-4.00681	249.583	-24.5605	22.5612	248.573	3.69811	17.1779	
48	0.4	219.596	17.185	15.833	204.232	24.4534	-13.891	204.412	21.4535	-41.2112	202.049	18.6246	-56.4704	237.143	29.1183	-45.3929	215.519	32.2487	-55.305	190.948	21.7409	-44.1089	242.06	10.5299	-54.0521	221.775	17.9963	-71.0285	191.376	16.8883	-74.1569	240.065	-4.07685	-51.8353	217.064	-0.943876	-64.5956	189.097	-0.980029	-49.3675	237.4	-26.3098	-46.1659	215.336	-19.2461	-57.3391	201.66	-7.88295	-39.5797	253.088	-22.2643	-3.11032	250.588	-27.8805	19.2227	251.228	2.31288	15.4301	
49	0.408333	224.51	15.9661	13.8784	210.731	24.69	-17.9289	205.702	23.1014	-38.5735	205.387	18.0279	-59.0045	241.132	25.9279	-42.8513	213.609	28.4722	-55.719	190.079	22.9869	-41.7369	244.481	11.2769	-50.1834	219.986	13.8071	-73.1563	193.984	16.8227	-73.9855	238.268	-9.56899	-54.1628	216.994	0.957168	-64.4895	189.555	2.81109	-51.7719	236.914	-25.3617	-44.778	214.952	-18.9629	-56.8515	200.39	-7.09309	-41.9796	253.562	-23.5338	-5.87618	248.194	-26.746	18.8181	254.108	-0.452306	14.6673	
50	0.416667	226.81	20.2461	11.9273	210.492	27.3115	-16.5751	208.07	23.7325	-38.3692	206.428	20.4259	-60.7668	243.033	27.7803	-45.766	216.98	31.5413	-56.7	193.157	27.5037	-43.4159	243.116	10.6481	-56.0536	224.18	16.9441	-70.9729	193.409	15.1483	-74.3233	237.27	-11.6754	-54.4306	215.766	-1.43209	-64.8956	189.069	3.50134	-51.968	233.375	-26.6303	-46.6102	215.46	-14.0364	-57.0122	197.443	-8.64923	-40.8736	253.939	-21.5213	-8.32602	250.47	-27.5757	17.7422	254.203	-2.93674	13.4335	
51	0.425	229.252	21.3311	14.7674	217.238	26.2241	-18.2313	212.23	22.5127	-38.4356	209.489	20.3387	-60.2555	245.98	23.108	-45.2114	221.163	29.1162	-56.1395	195.418	31.8904	-39.7366	244.74	6.0394	-53.2659	224.983	15.6841	-71.5876	193	23.9347	-72.4858	234.822	-14.4386	-53.6716	211.705	2.93411	-64.1518	188.522	7.98484	-51.4892	229.412	-27.2965	-48.0546	211.2	-18.8699	-56.7657	195.863	-1.35946	-39.1244	252.745	-24.5615	-9.27168	248.061	-32.743	17.524	258.016	-2.79537	11.9618	
52	0.433333	234.989	21.5821	12.9364	219.401	29.8113	-17.4965	216.071	22.6063	-39.9496	210.53	22.6771	-58.8424	243.645	22.1698	-48.9044	219.381	33.3219	-55.57	195.681	29.9157	-36.3482	242.433	3.78997	-57.8689	224.178	17.0854	-71.5869	192.925	22.9207	-71.2721	231.892	-10.8978	-55.4442	210.866	2.0077	-63.5278	188.41	12.8175	-50.5769	226.152	-27.6269	-46.3422	208.763	-13.6586	-56.2176	196.187	2.2616	-41.2287	249.805	-29.1613	-9.09043	246.248	-29.7692	20.4361	256.789	-6.70972	9.28646	
53	0.441667	238	20.6186	13.1067	223.588	32.6981	-16.9134	217.842	26.4937	-38.1211	213.031	19.8946	-62.1476	247.288	20.0494	-47.4487	223.887	29.2492	-57.1271	200.682	31.8326	-40.0496	243.159	4.75964	-56.0146	219.378	16.8664	-73.4982	193.293	25.1698	-70.4396	228.1	-13.1523	-56.8026	209.193	1.29288	-64.1502	191.219	19.6122	-49.7399	220.904	-29.4831	-45.6238	203.673	-15.5831	-55.0618	195.948	5.80431	-43.0395	247.565	-30.8657	-7.22756	245.675	-31.6676	18.3385	260.123	-6.74229	8.54432	
54	0.45	239.182	17.2721	12.7739	227.062	30.0061	-14.2525	221.745	25.362	-40.2904	214.297	19.5829	-57.1709	245.239	20.0974	-51.2486	221.101	33.4745	-56.0661	201.648	35.7027	-39.5904	240.704	4.86192	-58.4078	218.409	19.631	-72.3248	196.161	31.5273	-68.1099	227.653	-9.81233	-56.3858	207.631	1.97496	-64.7923	191.708	19.3508	-54.0921	217.167	-25.6764	-48.8769	201.942	-8.82232	-53.9387	191.924	10.2432	-37.5948	246.089	-28.3332	-10.9677	242.801	-33.7814	17.321	260.51	-8.68006	4.79535	
55	0.458333	240.768	16.3536	11.3254	231.074	29.0752	-17.4904	223.14	27.1735	-38.2506	214.986	13.3526	-57.8425	247.22	21.8319	-49.8565	223.033	32.21	-56.1995	203.167	36.7212	-39.8724	239.867	4.36513	-58.0868	220.082	19.979	-71.0487	191.875	33.2233	-64.7565	226.515	-13.5278	-55.1716	209.5	9.37445	-64.761	188.929	21.0527	-55.0396	216.846	-25.1417	-46.8679	198.73	-7.5533	-53.8668	194.988	12.8394	-40.6898	244.934	-30.9555	-12.3124	241.002	-33.3214	16.8529	260.057	-7.62377	4.96849	
56	0.466667	242.363	17.4913	10.8164	231.025	31.7184	-17.8506	225.051	25.6213	-39.8779	214.986	14.0899	-57.5664	246.26	20.6122	-50.9086	226.791	34.9709	-56.0959	203.164	39.3888	-36.7536	239.973	5.02795	-57.7459	220.459	18.7642	-70.599	194.676	34.8956	-64.4195	228.436	-9.60217	-54.5528	207.259	6.30038	-66.4582	190.185	21.2683	-56.0121	216.914	-21.8004	-47.6453	198.521	-6.3908	-54.0978	191.802	11.4012	-37.0584	241.757	-30.9227	-10.3583	241.482	-33.0164	15.7164	257.597	-10.4788	3.73252	
57	0.475	241.98	19.6012	11.6443	232.205	33.2617	-20.2313	223.991	28.0375	-44.5308	215.05	15.6221	-55.3739	248.639	22.9443	-49.4214	223.986	35.5482	-56.8095	202.865	38.3646	-35.7501	237.442	4.64095	-58.2895	217.712	23.2495	-71.2518	193.313	34.8707	-64.3058	225.395	-11.1802	-55.0289	208.544	7.20382	-66.3413	192.92	27.1793	-55.4176	212.312	-22.444	-49.9124	201.682	-2.9357	-54.0695	193.661	16.5058	-34.9013	243.649	-27.4395	-9.99344	240.695	-31.989	12.6778	256.907	-10.2965	3.56585	
58	0.483333	242.011	19.7936	9.28698	230.036	35.4284	-17.0299	223.444	32.6824	-40.8301	213.605	14.9981	-56.8129	246.802	22.1031	-49.2771	223.499	39.7019	-55.3886	204.036	41.9069	-36.0098	238.483	5.40843	-56.8432	214.816	22.1613	-71.7105	191.963	39.9706	-62.5051	227.698	-6.62892	-55.2102	205.156	8.38791	-65.1336	191.89	25.7585	-56.1878	212.551	-22.3627	-48.3988	198.761	-3.01965	-53.9643	190.982	16.1711	-38.7644	239.775	-28.3911	-9.52352	239.216	-31.8191	17.7823	256.528	-9.07898	5.87706	
59	0.491667	239.62	20.664	10.8117	229.146	38.7955	-17.4858	222.922	27.2701	-40.2833	213.596	18.1408	-56.2671	247.75	27.0872	-48.1487	223.608	37.8831	-56.1399	200.814	39.333	-37.4033	236.761	8.99946	-59.0268	216.139	24.0193	-71.6491	192.55	36.9291	-64.954	225.253	-7.84762	-56.391	205.147	8.71286	-65.8947	188.558	23.9657	-55.2068	213.702	-23.1523	-46.8106	198.124	-5.52737	-54.7336	192.783	14.128	-42.1373	241.912	-24.7013	-13.3561	240.225	-29.9371	17.5939	256.231	-8.09696	6.964	
60	0.5	236.485	26.3532	13.8309	226.149	35.8805	-15.5873	220.512	32.7429	-39.9097	212.211	21.8687	-60.0755	244.062	28.3725	-50.8126	218.577	42.1723	-54.6209	197.935	43.9252	-34.571	239.924	11.5199	-55.7792	219.388	27.3175	-70.2257	186.351	36.6175	-62.4625	224.172	-4.82121	-58.4231	205.503	9.67013	-64.5875	186.337	24.6468	-53.3698	214.562	-22.2684	-47.0081	201.947	-0.402402	-55.0066	188.587	12.6699	-43.9924	243.042	-24.4365	-11.7616	241.162	-27.9466	16.1778	256.761	-3.65384	4.39021	
61	0.508333	234.196	28.0648	11.1684	220.38	42.8463	-14.8859	216.575	36.4606	-41.1901	212.496	23.1215	-56.6966	245.016	32.5781	-45.7436	215.938	40.4498	-55.4936	197.395	44.9469	-36.9216	237.717	11.7765	-54.8263	216.617	30.1298	-70.6075	189.093	38.582	-63.2291	227.927	0.290622	-55.2324	209.008	11.9999	-65.0367	186.626	23.9321	-54.7932	219.067	-15.8638	-49.4808	202.762	-4.02203	-56.1683	189.884	16.8934	-39.6934	242.998	-19.7573	-12.1172	241.475	-24.2261	15.5957	255.772	3.95123	7.58745	
62	0.516667	229.982	32.0039	13.9851	216.82	42.1154	-14.4489	215.232	35.8741	-42.3443	211.127	26.4776	-59.0426	241.085	34.6382	-44.4258	216.447	41.5533	-54.8039	191.974	44.6416	-35.454	236.558	19.2168	-58.2344	215.924	32.0907	-69.3179	183.849	35.6656	-61.9557	227.72	0.125029	-53.5191	205.401	17.8241	-63.2329	182.289	25.2323	-48.4884	220.491	-17.1882	-47.6816	202.855	1.01742	-54.5986	192.771	15.3867	-35.2355	244.191	-15.0638	-7.59534	241.326	-22.5926	18.7277	252.014	7.31716	7.4225	
63	0.525	224.735	34.8036	13.8225	212.29	42.8625	-14.5351	210.539	39.4406	-39.765	208.334	27.3435	-61.0714	236.603	39.243	-43.085	209.267	49.7408	-51.8221	187.002	39.4173	-35.2131	235.477	22.5101	-53.7515	215.336	32.3704	-67.9331	179.721	33.3864	-62.2394	227.96	3.60287	-51.8444	203.717	14.6731	-60.8237	183.474	20.4376	-45.4931	222.44	-13.2335	-46.7709	205.881	1.94911	-52.9342	191.314	11.9958	-32.4894	247.277	-10.4087	-9.41767	241.494	-16.9548	20.4224	249.831	14.6027	10.0691	
64	0.533333	216.932	33.8593	19.9878	205.035	45.1549	-14.9674	201.857	41.342	-36.5376	204.702	28.9449	-58.467	232.401	48.8225	-38.7508	201.439	50.8275	-49.2145	181.149	39.1894	-34.336	232.73	32.2987	-50.7322	209.683	34.3239	-66.8842	179.494	36.1581	-62.7929	226.922	10.1943	-50.9306	196.947	16.7774	-57.9333	182.399	20.1598	-40.4244	223.765	-6.32169	-46.3831	201.444	4.14081	-49.9324	189.971	8.55807	-27.8441	246.533	-5.23756	-9.1777	243.082	-12.7755	19.9614	246.07	17.3118	13.3018	
65	0.541667	210.327	36.462	18.8466	197.423	40.8934	-11.6786	195.707	40.2428	-35.6157	197.494	29.7911	-55.5116	224.819	51.6989	-37.4915	196.674	46.2506	-49.6744	176.412	37.3416	-36.8701	227.324	33.7714	-53.8071	205.515	36.7144	-65.9359	176.501	34.7781	-63.1746	222.93	17.684	-51.0662	196.833	20.4732	-54.8388	180.03	18.7871	-32.9807	222.227	-1.44534	-47.228	197.745	3.77123	-46.3846	192.57	8.8691	-25.1484	245.525	0.637218	-5.47303	241.145	-6.01104	21.9856	244.967	22.5791	12.153	
66	0.55	202.836	37.2273	18.3544	188.514	39.1608	-10.9272	188.902	38.7104	-38.7285	193.283	27.5514	-56.1644	214.125	52.2667	-40.0863	190.327	50.2818	-50.1461	167.289	33.2212	-34.9725	222.583	37.5203	-49.6889	198.811	37.299	-66.5393	168.151	27.1652	-64.1722	218.423	18.5697	-53.6963	190.063	16.6937	-54.1226	177.503	14.0243	-33.3311	221.535	0.199951	-47.1846	198.924	3.37776	-48.3693	191.121	3.70919	-21.1397	245.267	6.09603	-9.20572	240.381	-1.96177	18.5021	236.998	27.0242	14.8119	
67	0.558333	195.669	37.0388	18.5388	182.033	36.8844	-12.3531	185.304	33.6937	-37.9116	186.081	26.1228	-57.2842	206.719	53.1413	-40.6744	181.459	46.5125	-50.4708	164.442	26.9394	-37.5913	212.082	42.2196	-51.9263	193.213	35.6273	-67.1039	166.454	22.6149	-66.9422	218.428	19.0105	-50.5946	190.629	15.8799	-55.9631	175.727	8.58011	-34.1354	219.893	-0.77248	-46.9773	193.159	3.99749	-43.4892	190.676	3.5075	-20.0466	241.094	12.0357	-5.945	240.785	0.735674	20.4965	231.426	34.8047	13.192	
68	0.566667	190.55	34.2795	17.9573	176.846	32.8635	-10.2973	173.72	32.2704	-38.4715	179.646	24.3176	-58.4268	200.715	52.6949	-39.2905	178.73	42.2878	-53.5102	158.88	25.86	-38.7881	208.041	39.5	-55.0103	187.988	32.5868	-67.5382	161.662	16.9507	-67.1653	213.951	18.9499	-52.9902	187.27	14.5462	-56.2794	170.965	5.78817	-32.8645	216.166	2.04547	-47.1352	194.303	1.77865	-45.3402	191.25	5.48176	-16.9243	237.32	17.6593	-5.70966	238.58	7.37074	17.0119	228.125	33.8334	10.8743	
